<mxfile host="65bd71144e">
    <diagram id="eRGZcs7SG9Er2lhAttIu" name="Page-1">
        <mxGraphModel dx="775" dy="538" grid="1" gridSize="5" guides="1" tooltips="1" connect="1" arrows="1" fold="1" page="1" pageScale="1" pageWidth="850" pageHeight="1100" math="0" shadow="0">
            <root>
                <mxCell id="0"/>
                <mxCell id="1" parent="0" visible="0"/>
                <mxCell id="329" value="grid_transform_map_generation" parent="0" visible="0"/>
                <mxCell id="330" value="" style="shape=ellipse;fillColor=#4D4D4D;strokeColor=none;html=1;sketch=0;shadow=0;" vertex="1" parent="329">
                    <mxGeometry x="380" y="240" width="10" height="10" as="geometry"/>
                </mxCell>
                <mxCell id="331" value="" style="shape=ellipse;fillColor=#4D4D4D;strokeColor=none;html=1;sketch=0;shadow=0;" vertex="1" parent="329">
                    <mxGeometry x="420" y="240" width="10" height="10" as="geometry"/>
                </mxCell>
                <mxCell id="332" value="" style="shape=ellipse;fillColor=#4D4D4D;strokeColor=none;html=1;sketch=0;shadow=0;" vertex="1" parent="329">
                    <mxGeometry x="460" y="240" width="10" height="10" as="geometry"/>
                </mxCell>
                <mxCell id="333" value="" style="shape=ellipse;fillColor=#4D4D4D;strokeColor=none;html=1;sketch=0;shadow=0;" vertex="1" parent="329">
                    <mxGeometry x="400" y="210" width="10" height="10" as="geometry"/>
                </mxCell>
                <mxCell id="334" value="" style="shape=ellipse;fillColor=#d5e8d4;strokeColor=#82b366;html=1;sketch=0;shadow=0;" vertex="1" parent="329">
                    <mxGeometry x="440" y="210" width="10" height="10" as="geometry"/>
                </mxCell>
                <mxCell id="335" value="" style="shape=ellipse;fillColor=#d5e8d4;strokeColor=#82b366;html=1;sketch=0;shadow=0;" vertex="1" parent="329">
                    <mxGeometry x="480" y="210" width="10" height="10" as="geometry"/>
                </mxCell>
                <mxCell id="336" value="" style="shape=ellipse;fillColor=#4D4D4D;strokeColor=none;html=1;sketch=0;shadow=0;" vertex="1" parent="329">
                    <mxGeometry x="380" y="180" width="10" height="10" as="geometry"/>
                </mxCell>
                <mxCell id="337" value="" style="shape=ellipse;fillColor=#d5e8d4;strokeColor=#82b366;html=1;sketch=0;shadow=0;" vertex="1" parent="329">
                    <mxGeometry x="420" y="180" width="10" height="10" as="geometry"/>
                </mxCell>
                <mxCell id="338" value="" style="shape=ellipse;fillColor=#f8cecc;strokeColor=#b85450;html=1;sketch=0;shadow=0;" vertex="1" parent="329">
                    <mxGeometry x="460" y="180" width="10" height="10" as="geometry"/>
                </mxCell>
                <mxCell id="339" value="" style="shape=ellipse;fillColor=#4D4D4D;strokeColor=none;html=1;sketch=0;shadow=0;" vertex="1" parent="329">
                    <mxGeometry x="400" y="150" width="10" height="10" as="geometry"/>
                </mxCell>
                <mxCell id="340" value="" style="shape=ellipse;fillColor=#d5e8d4;strokeColor=#82b366;html=1;sketch=0;shadow=0;" vertex="1" parent="329">
                    <mxGeometry x="440" y="150" width="10" height="10" as="geometry"/>
                </mxCell>
                <mxCell id="341" value="" style="shape=ellipse;fillColor=#4D4D4D;strokeColor=none;html=1;sketch=0;shadow=0;" vertex="1" parent="329">
                    <mxGeometry x="380" y="120" width="10" height="10" as="geometry"/>
                </mxCell>
                <mxCell id="342" value="" style="shape=ellipse;fillColor=#4D4D4D;strokeColor=none;html=1;sketch=0;shadow=0;" vertex="1" parent="329">
                    <mxGeometry x="420" y="120" width="10" height="10" as="geometry"/>
                </mxCell>
                <mxCell id="343" value="" style="shape=ellipse;fillColor=#4D4D4D;strokeColor=none;html=1;sketch=0;shadow=0;" vertex="1" parent="329">
                    <mxGeometry x="460" y="120" width="10" height="10" as="geometry"/>
                </mxCell>
                <mxCell id="344" value="" style="shape=ellipse;fillColor=#4D4D4D;strokeColor=none;html=1;sketch=0;shadow=0;" vertex="1" parent="329">
                    <mxGeometry x="500" y="240" width="10" height="10" as="geometry"/>
                </mxCell>
                <mxCell id="345" value="" style="shape=ellipse;fillColor=#4D4D4D;strokeColor=none;html=1;sketch=0;shadow=0;" vertex="1" parent="329">
                    <mxGeometry x="540" y="240" width="10" height="10" as="geometry"/>
                </mxCell>
                <mxCell id="346" value="" style="shape=ellipse;fillColor=#d5e8d4;strokeColor=#82b366;html=1;sketch=0;shadow=0;" vertex="1" parent="329">
                    <mxGeometry x="520" y="210" width="10" height="10" as="geometry"/>
                </mxCell>
                <mxCell id="347" value="" style="shape=ellipse;fillColor=#4D4D4D;strokeColor=none;html=1;sketch=0;shadow=0;" vertex="1" parent="329">
                    <mxGeometry x="560" y="210" width="10" height="10" as="geometry"/>
                </mxCell>
                <mxCell id="348" value="" style="shape=ellipse;fillColor=#d5e8d4;strokeColor=#82b366;html=1;sketch=0;shadow=0;" vertex="1" parent="329">
                    <mxGeometry x="500" y="180" width="10" height="10" as="geometry"/>
                </mxCell>
                <mxCell id="349" value="" style="shape=ellipse;fillColor=#4D4D4D;strokeColor=none;html=1;sketch=0;shadow=0;" vertex="1" parent="329">
                    <mxGeometry x="540" y="180" width="10" height="10" as="geometry"/>
                </mxCell>
                <mxCell id="350" value="" style="shape=ellipse;fillColor=#d5e8d4;strokeColor=#82b366;html=1;sketch=0;shadow=0;" vertex="1" parent="329">
                    <mxGeometry x="480" y="150" width="10" height="10" as="geometry"/>
                </mxCell>
                <mxCell id="351" value="" style="shape=ellipse;fillColor=#d5e8d4;strokeColor=#82b366;html=1;sketch=0;shadow=0;" vertex="1" parent="329">
                    <mxGeometry x="520" y="150" width="10" height="10" as="geometry"/>
                </mxCell>
                <mxCell id="352" value="" style="shape=ellipse;fillColor=#4D4D4D;strokeColor=none;html=1;sketch=0;shadow=0;" vertex="1" parent="329">
                    <mxGeometry x="560" y="150" width="10" height="10" as="geometry"/>
                </mxCell>
                <mxCell id="353" value="" style="shape=ellipse;fillColor=#4D4D4D;strokeColor=none;html=1;sketch=0;shadow=0;" vertex="1" parent="329">
                    <mxGeometry x="500" y="120" width="10" height="10" as="geometry"/>
                </mxCell>
                <mxCell id="354" value="" style="shape=ellipse;fillColor=#4D4D4D;strokeColor=none;html=1;sketch=0;shadow=0;" vertex="1" parent="329">
                    <mxGeometry x="540" y="120" width="10" height="10" as="geometry"/>
                </mxCell>
                <mxCell id="355" value="" style="shape=ellipse;fillColor=#4D4D4D;strokeColor=none;html=1;sketch=0;shadow=0;" vertex="1" parent="329">
                    <mxGeometry x="80" y="240" width="10" height="10" as="geometry"/>
                </mxCell>
                <mxCell id="356" value="" style="shape=ellipse;fillColor=#4D4D4D;strokeColor=none;html=1;sketch=0;shadow=0;" vertex="1" parent="329">
                    <mxGeometry x="120" y="240" width="10" height="10" as="geometry"/>
                </mxCell>
                <mxCell id="357" value="" style="shape=ellipse;fillColor=#4D4D4D;strokeColor=none;html=1;sketch=0;shadow=0;" vertex="1" parent="329">
                    <mxGeometry x="160" y="240" width="10" height="10" as="geometry"/>
                </mxCell>
                <mxCell id="358" value="" style="shape=ellipse;fillColor=#4D4D4D;strokeColor=none;html=1;sketch=0;shadow=0;" vertex="1" parent="329">
                    <mxGeometry x="80" y="210" width="10" height="10" as="geometry"/>
                </mxCell>
                <mxCell id="359" value="" style="shape=ellipse;fillColor=#d5e8d4;strokeColor=#82b366;html=1;sketch=0;shadow=0;" vertex="1" parent="329">
                    <mxGeometry x="120" y="210" width="10" height="10" as="geometry"/>
                </mxCell>
                <mxCell id="360" value="" style="shape=ellipse;fillColor=#d5e8d4;strokeColor=#82b366;html=1;sketch=0;shadow=0;" vertex="1" parent="329">
                    <mxGeometry x="160" y="210" width="10" height="10" as="geometry"/>
                </mxCell>
                <mxCell id="361" value="" style="shape=ellipse;fillColor=#4D4D4D;strokeColor=none;html=1;sketch=0;shadow=0;" vertex="1" parent="329">
                    <mxGeometry x="80" y="180" width="10" height="10" as="geometry"/>
                </mxCell>
                <mxCell id="362" value="" style="shape=ellipse;fillColor=#d5e8d4;strokeColor=#82b366;html=1;sketch=0;shadow=0;" vertex="1" parent="329">
                    <mxGeometry x="120" y="180" width="10" height="10" as="geometry"/>
                </mxCell>
                <mxCell id="363" value="" style="shape=ellipse;fillColor=#f8cecc;strokeColor=#b85450;html=1;sketch=0;shadow=0;" vertex="1" parent="329">
                    <mxGeometry x="160" y="180" width="10" height="10" as="geometry"/>
                </mxCell>
                <mxCell id="364" value="" style="shape=ellipse;fillColor=#4D4D4D;strokeColor=none;html=1;sketch=0;shadow=0;" vertex="1" parent="329">
                    <mxGeometry x="80" y="150" width="10" height="10" as="geometry"/>
                </mxCell>
                <mxCell id="365" value="" style="shape=ellipse;fillColor=#d5e8d4;strokeColor=#82b366;html=1;sketch=0;shadow=0;" vertex="1" parent="329">
                    <mxGeometry x="120" y="150" width="10" height="10" as="geometry"/>
                </mxCell>
                <mxCell id="366" value="" style="shape=ellipse;fillColor=#4D4D4D;strokeColor=none;html=1;sketch=0;shadow=0;" vertex="1" parent="329">
                    <mxGeometry x="80" y="120" width="10" height="10" as="geometry"/>
                </mxCell>
                <mxCell id="367" value="" style="shape=ellipse;fillColor=#4D4D4D;strokeColor=none;html=1;sketch=0;shadow=0;" vertex="1" parent="329">
                    <mxGeometry x="120" y="120" width="10" height="10" as="geometry"/>
                </mxCell>
                <mxCell id="368" value="" style="shape=ellipse;fillColor=#4D4D4D;strokeColor=none;html=1;sketch=0;shadow=0;" vertex="1" parent="329">
                    <mxGeometry x="160" y="120" width="10" height="10" as="geometry"/>
                </mxCell>
                <mxCell id="369" value="" style="shape=ellipse;fillColor=#4D4D4D;strokeColor=none;html=1;sketch=0;shadow=0;" vertex="1" parent="329">
                    <mxGeometry x="200" y="240" width="10" height="10" as="geometry"/>
                </mxCell>
                <mxCell id="370" value="" style="shape=ellipse;fillColor=#4D4D4D;strokeColor=none;html=1;sketch=0;shadow=0;" vertex="1" parent="329">
                    <mxGeometry x="240" y="240" width="10" height="10" as="geometry"/>
                </mxCell>
                <mxCell id="371" value="" style="shape=ellipse;fillColor=#d5e8d4;strokeColor=#82b366;html=1;sketch=0;shadow=0;" vertex="1" parent="329">
                    <mxGeometry x="200" y="210" width="10" height="10" as="geometry"/>
                </mxCell>
                <mxCell id="372" value="" style="shape=ellipse;fillColor=#4D4D4D;strokeColor=none;html=1;sketch=0;shadow=0;" vertex="1" parent="329">
                    <mxGeometry x="240" y="210" width="10" height="10" as="geometry"/>
                </mxCell>
                <mxCell id="373" value="" style="shape=ellipse;fillColor=#d5e8d4;strokeColor=#82b366;html=1;sketch=0;shadow=0;" vertex="1" parent="329">
                    <mxGeometry x="200" y="180" width="10" height="10" as="geometry"/>
                </mxCell>
                <mxCell id="374" value="" style="shape=ellipse;fillColor=#4D4D4D;strokeColor=none;html=1;sketch=0;shadow=0;" vertex="1" parent="329">
                    <mxGeometry x="240" y="180" width="10" height="10" as="geometry"/>
                </mxCell>
                <mxCell id="375" value="" style="shape=ellipse;fillColor=#d5e8d4;strokeColor=#82b366;html=1;sketch=0;shadow=0;" vertex="1" parent="329">
                    <mxGeometry x="160" y="150" width="10" height="10" as="geometry"/>
                </mxCell>
                <mxCell id="376" value="" style="shape=ellipse;fillColor=#d5e8d4;strokeColor=#82b366;html=1;sketch=0;shadow=0;" vertex="1" parent="329">
                    <mxGeometry x="200" y="150" width="10" height="10" as="geometry"/>
                </mxCell>
                <mxCell id="377" value="" style="shape=ellipse;fillColor=#4D4D4D;strokeColor=none;html=1;sketch=0;shadow=0;" vertex="1" parent="329">
                    <mxGeometry x="240" y="150" width="10" height="10" as="geometry"/>
                </mxCell>
                <mxCell id="378" value="" style="shape=ellipse;fillColor=#4D4D4D;strokeColor=none;html=1;sketch=0;shadow=0;" vertex="1" parent="329">
                    <mxGeometry x="200" y="120" width="10" height="10" as="geometry"/>
                </mxCell>
                <mxCell id="379" value="" style="shape=ellipse;fillColor=#4D4D4D;strokeColor=none;html=1;sketch=0;shadow=0;" vertex="1" parent="329">
                    <mxGeometry x="240" y="120" width="10" height="10" as="geometry"/>
                </mxCell>
                <mxCell id="380" value="" style="shape=flexArrow;endArrow=classic;html=1;rounded=1;shadow=0;labelBorderColor=none;comic=0;sketch=1;jiggle=0;curveFitting=0;simplification=1;sketchStyle=rough;strokeColor=default;strokeWidth=2;startSize=0;endSize=4.795238095238095;jumpStyle=none;endWidth=13.242630385487528;width=6.19047619047619;" edge="1" parent="329">
                    <mxGeometry width="50" height="50" relative="1" as="geometry">
                        <mxPoint x="280" y="185.0000000000001" as="sourcePoint"/>
                        <mxPoint x="350" y="185.0000000000001" as="targetPoint"/>
                    </mxGeometry>
                </mxCell>
                <mxCell id="381" value="map_generation_example" parent="0" visible="0"/>
                <mxCell id="382" value="" style="whiteSpace=wrap;html=1;aspect=fixed;strokeColor=#B3B3B3;strokeWidth=3;fillColor=#f8cecc;movable=1;resizable=1;rotatable=1;deletable=1;editable=1;connectable=1;" vertex="1" parent="381">
                    <mxGeometry x="350" y="365" width="250" height="250" as="geometry"/>
                </mxCell>
                <mxCell id="383" value="" style="shape=parallelogram;perimeter=parallelogramPerimeter;whiteSpace=wrap;html=1;fixedSize=1;strokeColor=none;strokeWidth=3;fillColor=#d5e8d4;flipH=0;size=40;" vertex="1" parent="381">
                    <mxGeometry x="495" y="490" width="60" height="60" as="geometry"/>
                </mxCell>
                <mxCell id="384" value="" style="shape=parallelogram;perimeter=parallelogramPerimeter;whiteSpace=wrap;html=1;fixedSize=1;strokeColor=none;strokeWidth=3;fillColor=#d5e8d4;flipH=0;size=30;" vertex="1" parent="381">
                    <mxGeometry x="505" y="505" width="60" height="45" as="geometry"/>
                </mxCell>
                <mxCell id="385" value="" style="shape=parallelogram;perimeter=parallelogramPerimeter;whiteSpace=wrap;html=1;fixedSize=1;strokeColor=none;strokeWidth=3;fillColor=#d5e8d4;flipH=0;size=40;" vertex="1" parent="381">
                    <mxGeometry x="415" y="520" width="60" height="60" as="geometry"/>
                </mxCell>
                <mxCell id="386" value="" style="shape=parallelogram;perimeter=parallelogramPerimeter;whiteSpace=wrap;html=1;fixedSize=1;strokeColor=none;strokeWidth=3;fillColor=#d5e8d4;flipH=0;size=40;" vertex="1" parent="381">
                    <mxGeometry x="405" y="505" width="60" height="60" as="geometry"/>
                </mxCell>
                <mxCell id="387" value="" style="shape=parallelogram;perimeter=parallelogramPerimeter;whiteSpace=wrap;html=1;fixedSize=1;strokeColor=none;strokeWidth=3;fillColor=#d5e8d4;flipH=0;size=40;" vertex="1" parent="381">
                    <mxGeometry x="405" y="445" width="80" height="60" as="geometry"/>
                </mxCell>
                <mxCell id="388" value="" style="shape=parallelogram;perimeter=parallelogramPerimeter;whiteSpace=wrap;html=1;fixedSize=1;strokeColor=none;strokeWidth=3;fillColor=#d5e8d4;flipH=1;size=30;" vertex="1" parent="381">
                    <mxGeometry x="405" y="505" width="80" height="45" as="geometry"/>
                </mxCell>
                <mxCell id="389" value="" style="shape=parallelogram;perimeter=parallelogramPerimeter;whiteSpace=wrap;html=1;fixedSize=1;strokeColor=none;strokeWidth=3;fillColor=#d5e8d4;flipH=1;size=50;" vertex="1" parent="381">
                    <mxGeometry x="405" y="445" width="90" height="75" as="geometry"/>
                </mxCell>
                <mxCell id="390" value="" style="shape=parallelogram;perimeter=parallelogramPerimeter;whiteSpace=wrap;html=1;fixedSize=1;strokeColor=none;strokeWidth=3;fillColor=#d5e8d4;flipH=1;size=10;" vertex="1" parent="381">
                    <mxGeometry x="415" y="430" width="70" height="15" as="geometry"/>
                </mxCell>
                <mxCell id="391" value="" style="shape=parallelogram;perimeter=parallelogramPerimeter;whiteSpace=wrap;html=1;fixedSize=1;strokeColor=none;strokeWidth=3;fillColor=#d5e8d4;flipH=0;size=10;" vertex="1" parent="381">
                    <mxGeometry x="405" y="430" width="70" height="15" as="geometry"/>
                </mxCell>
                <mxCell id="392" value="" style="shape=parallelogram;perimeter=parallelogramPerimeter;whiteSpace=wrap;html=1;fixedSize=1;strokeColor=none;strokeWidth=3;fillColor=#d5e8d4;flipH=0;size=10;" vertex="1" parent="381">
                    <mxGeometry x="465" y="520" width="75" height="15" as="geometry"/>
                </mxCell>
                <mxCell id="393" value="" style="shape=parallelogram;perimeter=parallelogramPerimeter;whiteSpace=wrap;html=1;fixedSize=1;strokeColor=none;strokeWidth=3;fillColor=#d5e8d4;flipH=1;size=10;" vertex="1" parent="381">
                    <mxGeometry x="405" y="565" width="30" height="15" as="geometry"/>
                </mxCell>
                <mxCell id="394" value="" style="shape=parallelogram;perimeter=parallelogramPerimeter;whiteSpace=wrap;html=1;fixedSize=1;strokeColor=none;strokeWidth=3;fillColor=#d5e8d4;flipH=1;size=10;" vertex="1" parent="381">
                    <mxGeometry x="535" y="490" width="30" height="15" as="geometry"/>
                </mxCell>
                <mxCell id="395" value="" style="shape=parallelogram;perimeter=parallelogramPerimeter;whiteSpace=wrap;html=1;fixedSize=1;strokeColor=none;strokeWidth=3;fillColor=#d5e8d4;flipH=1;size=50;" vertex="1" parent="381">
                    <mxGeometry x="425" y="475" width="90" height="75" as="geometry"/>
                </mxCell>
                <mxCell id="396" value="" style="shape=ellipse;fillColor=#f8cecc;strokeColor=#b85450;html=1;sketch=0;movable=0;resizable=0;rotatable=0;deletable=0;editable=0;connectable=0;" vertex="1" parent="381">
                    <mxGeometry x="360" y="590" width="10" height="10" as="geometry"/>
                </mxCell>
                <mxCell id="397" value="" style="shape=ellipse;fillColor=#f8cecc;strokeColor=#b85450;html=1;sketch=0;movable=0;resizable=0;rotatable=0;deletable=0;editable=0;connectable=0;" vertex="1" parent="381">
                    <mxGeometry x="400" y="590" width="10" height="10" as="geometry"/>
                </mxCell>
                <mxCell id="398" value="" style="shape=ellipse;fillColor=#f8cecc;strokeColor=#b85450;html=1;sketch=0;movable=0;resizable=0;rotatable=0;deletable=0;editable=0;connectable=0;" vertex="1" parent="381">
                    <mxGeometry x="440" y="590" width="10" height="10" as="geometry"/>
                </mxCell>
                <mxCell id="399" value="" style="shape=ellipse;fillColor=#f8cecc;strokeColor=#b85450;html=1;sketch=0;movable=0;resizable=0;rotatable=0;deletable=0;editable=0;connectable=0;" vertex="1" parent="381">
                    <mxGeometry x="380" y="560" width="10" height="10" as="geometry"/>
                </mxCell>
                <mxCell id="400" value="" style="shape=ellipse;fillColor=#d5e8d4;strokeColor=#82b366;html=1;sketch=0;movable=0;resizable=0;rotatable=0;deletable=0;editable=0;connectable=0;" vertex="1" parent="381">
                    <mxGeometry x="420" y="560" width="10" height="10" as="geometry"/>
                </mxCell>
                <mxCell id="401" value="" style="shape=ellipse;fillColor=#f8cecc;strokeColor=#b85450;html=1;sketch=0;movable=0;resizable=0;rotatable=0;deletable=0;editable=0;connectable=0;" vertex="1" parent="381">
                    <mxGeometry x="460" y="560" width="10" height="10" as="geometry"/>
                </mxCell>
                <mxCell id="402" value="" style="shape=ellipse;fillColor=#f8cecc;strokeColor=#b85450;html=1;sketch=0;movable=0;resizable=0;rotatable=0;deletable=0;editable=0;connectable=0;" vertex="1" parent="381">
                    <mxGeometry x="360" y="530" width="10" height="10" as="geometry"/>
                </mxCell>
                <mxCell id="403" value="" style="shape=ellipse;fillColor=#f8cecc;strokeColor=#b85450;html=1;sketch=0;movable=0;resizable=0;rotatable=0;deletable=0;editable=0;connectable=0;" vertex="1" parent="381">
                    <mxGeometry x="400" y="530" width="10" height="10" as="geometry"/>
                </mxCell>
                <mxCell id="404" value="" style="shape=ellipse;fillColor=#d5e8d4;strokeColor=#82b366;html=1;sketch=0;movable=0;resizable=0;rotatable=0;deletable=0;editable=0;connectable=0;" vertex="1" parent="381">
                    <mxGeometry x="440" y="530" width="10" height="10" as="geometry"/>
                </mxCell>
                <mxCell id="405" value="" style="shape=ellipse;fillColor=#f8cecc;strokeColor=#b85450;html=1;sketch=0;movable=0;resizable=0;rotatable=0;deletable=0;editable=0;connectable=0;" vertex="1" parent="381">
                    <mxGeometry x="380" y="500" width="10" height="10" as="geometry"/>
                </mxCell>
                <mxCell id="406" value="" style="shape=ellipse;fillColor=#d5e8d4;strokeColor=#82b366;html=1;sketch=0;movable=0;resizable=0;rotatable=0;deletable=0;editable=0;connectable=0;" vertex="1" parent="381">
                    <mxGeometry x="420" y="500" width="10" height="10" as="geometry"/>
                </mxCell>
                <mxCell id="407" value="" style="shape=ellipse;fillColor=#d5e8d4;strokeColor=#82b366;html=1;sketch=0;movable=0;resizable=0;rotatable=0;deletable=0;editable=0;connectable=0;" vertex="1" parent="381">
                    <mxGeometry x="460" y="500" width="10" height="10" as="geometry"/>
                </mxCell>
                <mxCell id="408" value="" style="shape=ellipse;fillColor=#f8cecc;strokeColor=#b85450;html=1;sketch=0;movable=0;resizable=0;rotatable=0;deletable=0;editable=0;connectable=0;" vertex="1" parent="381">
                    <mxGeometry x="360" y="470" width="10" height="10" as="geometry"/>
                </mxCell>
                <mxCell id="409" value="" style="shape=ellipse;fillColor=#f8cecc;strokeColor=#b85450;html=1;sketch=0;movable=0;resizable=0;rotatable=0;deletable=0;editable=0;connectable=0;" vertex="1" parent="381">
                    <mxGeometry x="400" y="470" width="10" height="10" as="geometry"/>
                </mxCell>
                <mxCell id="410" value="" style="shape=ellipse;fillColor=#d5e8d4;strokeColor=#82b366;html=1;sketch=0;movable=0;resizable=0;rotatable=0;deletable=0;editable=0;connectable=0;" vertex="1" parent="381">
                    <mxGeometry x="440" y="470" width="10" height="10" as="geometry"/>
                </mxCell>
                <mxCell id="411" value="" style="shape=ellipse;fillColor=#f8cecc;strokeColor=#b85450;html=1;sketch=0;movable=0;resizable=0;rotatable=0;deletable=0;editable=0;connectable=0;" vertex="1" parent="381">
                    <mxGeometry x="380" y="440" width="10" height="10" as="geometry"/>
                </mxCell>
                <mxCell id="412" value="" style="shape=ellipse;fillColor=#d5e8d4;strokeColor=#82b366;html=1;sketch=0;movable=0;resizable=0;rotatable=0;deletable=0;editable=0;connectable=0;" vertex="1" parent="381">
                    <mxGeometry x="420" y="440" width="10" height="10" as="geometry"/>
                </mxCell>
                <mxCell id="413" value="" style="shape=ellipse;fillColor=#d5e8d4;strokeColor=#82b366;html=1;sketch=0;movable=0;resizable=0;rotatable=0;deletable=0;editable=0;connectable=0;" vertex="1" parent="381">
                    <mxGeometry x="460" y="440" width="10" height="10" as="geometry"/>
                </mxCell>
                <mxCell id="414" value="" style="shape=ellipse;fillColor=#f8cecc;strokeColor=#b85450;html=1;sketch=0;movable=0;resizable=0;rotatable=0;deletable=0;editable=0;connectable=0;" vertex="1" parent="381">
                    <mxGeometry x="360" y="410" width="10" height="10" as="geometry"/>
                </mxCell>
                <mxCell id="415" value="" style="shape=ellipse;fillColor=#f8cecc;strokeColor=#b85450;html=1;sketch=0;movable=0;resizable=0;rotatable=0;deletable=0;editable=0;connectable=0;" vertex="1" parent="381">
                    <mxGeometry x="400" y="410" width="10" height="10" as="geometry"/>
                </mxCell>
                <mxCell id="416" value="" style="shape=ellipse;fillColor=#f8cecc;strokeColor=#b85450;html=1;sketch=0;movable=0;resizable=0;rotatable=0;deletable=0;editable=0;connectable=0;" vertex="1" parent="381">
                    <mxGeometry x="440" y="410" width="10" height="10" as="geometry"/>
                </mxCell>
                <mxCell id="417" value="" style="shape=ellipse;fillColor=#f8cecc;strokeColor=#b85450;html=1;sketch=0;movable=0;resizable=0;rotatable=0;deletable=0;editable=0;connectable=0;" vertex="1" parent="381">
                    <mxGeometry x="380" y="380" width="10" height="10" as="geometry"/>
                </mxCell>
                <mxCell id="418" value="" style="shape=ellipse;fillColor=#f8cecc;strokeColor=#b85450;html=1;sketch=0;movable=0;resizable=0;rotatable=0;deletable=0;editable=0;connectable=0;" vertex="1" parent="381">
                    <mxGeometry x="420" y="380" width="10" height="10" as="geometry"/>
                </mxCell>
                <mxCell id="419" value="" style="shape=ellipse;fillColor=#f8cecc;strokeColor=#b85450;html=1;sketch=0;movable=0;resizable=0;rotatable=0;deletable=0;editable=0;connectable=0;" vertex="1" parent="381">
                    <mxGeometry x="460" y="380" width="10" height="10" as="geometry"/>
                </mxCell>
                <mxCell id="420" value="" style="shape=ellipse;fillColor=#f8cecc;strokeColor=#b85450;html=1;sketch=0;movable=0;resizable=0;rotatable=0;deletable=0;editable=0;connectable=0;" vertex="1" parent="381">
                    <mxGeometry x="480" y="590" width="10" height="10" as="geometry"/>
                </mxCell>
                <mxCell id="421" value="" style="shape=ellipse;fillColor=#f8cecc;strokeColor=#b85450;html=1;sketch=0;movable=0;resizable=0;rotatable=0;deletable=0;editable=0;connectable=0;" vertex="1" parent="381">
                    <mxGeometry x="520" y="590" width="10" height="10" as="geometry"/>
                </mxCell>
                <mxCell id="422" value="" style="shape=ellipse;fillColor=#f8cecc;strokeColor=#b85450;html=1;sketch=0;movable=0;resizable=0;rotatable=0;deletable=0;editable=0;connectable=0;" vertex="1" parent="381">
                    <mxGeometry x="560" y="590" width="10" height="10" as="geometry"/>
                </mxCell>
                <mxCell id="423" value="" style="shape=ellipse;fillColor=#f8cecc;strokeColor=#b85450;html=1;sketch=0;movable=0;resizable=0;rotatable=0;deletable=0;editable=0;connectable=0;" vertex="1" parent="381">
                    <mxGeometry x="500" y="560" width="10" height="10" as="geometry"/>
                </mxCell>
                <mxCell id="424" value="" style="shape=ellipse;fillColor=#f8cecc;strokeColor=#b85450;html=1;sketch=0;movable=0;resizable=0;rotatable=0;deletable=0;editable=0;connectable=0;" vertex="1" parent="381">
                    <mxGeometry x="540" y="560" width="10" height="10" as="geometry"/>
                </mxCell>
                <mxCell id="425" value="" style="shape=ellipse;fillColor=#f8cecc;strokeColor=#b85450;html=1;sketch=0;movable=0;resizable=0;rotatable=0;deletable=0;editable=0;connectable=0;" vertex="1" parent="381">
                    <mxGeometry x="580" y="560" width="10" height="10" as="geometry"/>
                </mxCell>
                <mxCell id="426" value="" style="shape=ellipse;fillColor=#d5e8d4;strokeColor=#82b366;html=1;sketch=0;movable=0;resizable=0;rotatable=0;deletable=0;editable=0;connectable=0;" vertex="1" parent="381">
                    <mxGeometry x="480" y="530" width="10" height="10" as="geometry"/>
                </mxCell>
                <mxCell id="427" value="" style="shape=ellipse;fillColor=#d5e8d4;strokeColor=#82b366;html=1;sketch=0;movable=0;resizable=0;rotatable=0;deletable=0;editable=0;connectable=0;" vertex="1" parent="381">
                    <mxGeometry x="520" y="530" width="10" height="10" as="geometry"/>
                </mxCell>
                <mxCell id="428" value="" style="shape=ellipse;fillColor=#f8cecc;strokeColor=#b85450;html=1;sketch=0;movable=0;resizable=0;rotatable=0;deletable=0;editable=0;connectable=0;" vertex="1" parent="381">
                    <mxGeometry x="560" y="530" width="10" height="10" as="geometry"/>
                </mxCell>
                <mxCell id="429" value="" style="shape=ellipse;fillColor=#f8cecc;strokeColor=#b85450;html=1;sketch=0;movable=0;resizable=0;rotatable=0;deletable=0;editable=0;connectable=0;" vertex="1" parent="381">
                    <mxGeometry x="500" y="500" width="10" height="10" as="geometry"/>
                </mxCell>
                <mxCell id="430" value="" style="shape=ellipse;fillColor=#d5e8d4;strokeColor=#82b366;html=1;sketch=0;movable=0;resizable=0;rotatable=0;deletable=0;editable=0;connectable=0;" vertex="1" parent="381">
                    <mxGeometry x="540" y="500" width="10" height="10" as="geometry"/>
                </mxCell>
                <mxCell id="431" value="" style="shape=ellipse;fillColor=#f8cecc;strokeColor=#b85450;html=1;sketch=0;movable=0;resizable=0;rotatable=0;deletable=0;editable=0;connectable=0;" vertex="1" parent="381">
                    <mxGeometry x="580" y="500" width="10" height="10" as="geometry"/>
                </mxCell>
                <mxCell id="432" value="" style="shape=ellipse;fillColor=#f8cecc;strokeColor=#b85450;html=1;sketch=0;movable=0;resizable=0;rotatable=0;deletable=0;editable=0;connectable=0;" vertex="1" parent="381">
                    <mxGeometry x="480" y="470" width="10" height="10" as="geometry"/>
                </mxCell>
                <mxCell id="433" value="" style="shape=ellipse;fillColor=#f8cecc;strokeColor=#b85450;html=1;sketch=0;movable=0;resizable=0;rotatable=0;deletable=0;editable=0;connectable=0;" vertex="1" parent="381">
                    <mxGeometry x="520" y="470" width="10" height="10" as="geometry"/>
                </mxCell>
                <mxCell id="434" value="" style="shape=ellipse;fillColor=#f8cecc;strokeColor=#b85450;html=1;sketch=0;movable=0;resizable=0;rotatable=0;deletable=0;editable=0;connectable=0;" vertex="1" parent="381">
                    <mxGeometry x="560" y="470" width="10" height="10" as="geometry"/>
                </mxCell>
                <mxCell id="435" value="" style="shape=ellipse;fillColor=#f8cecc;strokeColor=#b85450;html=1;sketch=0;movable=0;resizable=0;rotatable=0;deletable=0;editable=0;connectable=0;" vertex="1" parent="381">
                    <mxGeometry x="500" y="440" width="10" height="10" as="geometry"/>
                </mxCell>
                <mxCell id="436" value="" style="shape=ellipse;fillColor=#f8cecc;strokeColor=#b85450;html=1;sketch=0;movable=0;resizable=0;rotatable=0;deletable=0;editable=0;connectable=0;" vertex="1" parent="381">
                    <mxGeometry x="540" y="440" width="10" height="10" as="geometry"/>
                </mxCell>
                <mxCell id="437" value="" style="shape=ellipse;fillColor=#f8cecc;strokeColor=#b85450;html=1;sketch=0;movable=0;resizable=0;rotatable=0;deletable=0;editable=0;connectable=0;" vertex="1" parent="381">
                    <mxGeometry x="580" y="440" width="10" height="10" as="geometry"/>
                </mxCell>
                <mxCell id="438" value="" style="shape=ellipse;fillColor=#f8cecc;strokeColor=#b85450;html=1;sketch=0;movable=0;resizable=0;rotatable=0;deletable=0;editable=0;connectable=0;" vertex="1" parent="381">
                    <mxGeometry x="480" y="410" width="10" height="10" as="geometry"/>
                </mxCell>
                <mxCell id="439" value="" style="shape=ellipse;fillColor=#f8cecc;strokeColor=#b85450;html=1;sketch=0;movable=0;resizable=0;rotatable=0;deletable=0;editable=0;connectable=0;" vertex="1" parent="381">
                    <mxGeometry x="520" y="410" width="10" height="10" as="geometry"/>
                </mxCell>
                <mxCell id="440" value="" style="shape=ellipse;fillColor=#f8cecc;strokeColor=#b85450;html=1;sketch=0;movable=0;resizable=0;rotatable=0;deletable=0;editable=0;connectable=0;" vertex="1" parent="381">
                    <mxGeometry x="560" y="410" width="10" height="10" as="geometry"/>
                </mxCell>
                <mxCell id="441" value="" style="shape=ellipse;fillColor=#f8cecc;strokeColor=#b85450;html=1;sketch=0;movable=0;resizable=0;rotatable=0;deletable=0;editable=0;connectable=0;" vertex="1" parent="381">
                    <mxGeometry x="500" y="380" width="10" height="10" as="geometry"/>
                </mxCell>
                <mxCell id="442" value="" style="shape=ellipse;fillColor=#f8cecc;strokeColor=#b85450;html=1;sketch=0;movable=0;resizable=0;rotatable=0;deletable=0;editable=0;connectable=0;" vertex="1" parent="381">
                    <mxGeometry x="540" y="380" width="10" height="10" as="geometry"/>
                </mxCell>
                <mxCell id="443" value="" style="shape=ellipse;fillColor=#f8cecc;strokeColor=#b85450;html=1;sketch=0;movable=0;resizable=0;rotatable=0;deletable=0;editable=0;connectable=0;" vertex="1" parent="381">
                    <mxGeometry x="580" y="380" width="10" height="10" as="geometry"/>
                </mxCell>
                <mxCell id="444" value="" style="endArrow=none;html=1;rounded=1;shadow=0;labelBorderColor=none;comic=0;sketch=1;jiggle=0;curveFitting=0;simplification=1;sketchStyle=rough;strokeColor=default;strokeWidth=3;startSize=0;endSize=0;jumpStyle=none;movable=0;resizable=0;rotatable=0;deletable=0;editable=0;connectable=0;" edge="1" parent="381">
                    <mxGeometry width="50" height="50" relative="1" as="geometry">
                        <mxPoint x="405" y="565" as="sourcePoint"/>
                        <mxPoint x="425" y="535" as="targetPoint"/>
                    </mxGeometry>
                </mxCell>
                <mxCell id="445" value="" style="endArrow=none;html=1;rounded=1;shadow=0;labelBorderColor=none;comic=0;sketch=1;jiggle=0;curveFitting=0;simplification=1;sketchStyle=rough;strokeColor=default;strokeWidth=3;startSize=0;endSize=0;jumpStyle=none;movable=0;resizable=0;rotatable=0;deletable=0;editable=0;connectable=0;" edge="1" parent="381">
                    <mxGeometry width="50" height="50" relative="1" as="geometry">
                        <mxPoint x="425" y="535" as="sourcePoint"/>
                        <mxPoint x="405" y="505" as="targetPoint"/>
                    </mxGeometry>
                </mxCell>
                <mxCell id="446" value="" style="endArrow=none;html=1;rounded=1;shadow=0;labelBorderColor=none;comic=0;sketch=1;jiggle=0;curveFitting=0;simplification=1;sketchStyle=rough;strokeColor=default;strokeWidth=3;startSize=0;endSize=0;jumpStyle=none;movable=0;resizable=0;rotatable=0;deletable=0;editable=0;connectable=0;" edge="1" parent="381">
                    <mxGeometry width="50" height="50" relative="1" as="geometry">
                        <mxPoint x="405" y="505" as="sourcePoint"/>
                        <mxPoint x="425" y="475" as="targetPoint"/>
                    </mxGeometry>
                </mxCell>
                <mxCell id="447" value="" style="endArrow=none;html=1;rounded=1;shadow=0;labelBorderColor=none;comic=0;sketch=1;jiggle=0;curveFitting=0;simplification=1;sketchStyle=rough;strokeColor=default;strokeWidth=3;startSize=0;endSize=0;jumpStyle=none;movable=0;resizable=0;rotatable=0;deletable=0;editable=0;connectable=0;" edge="1" parent="381">
                    <mxGeometry width="50" height="50" relative="1" as="geometry">
                        <mxPoint x="405" y="445" as="sourcePoint"/>
                        <mxPoint x="415" y="460" as="targetPoint"/>
                    </mxGeometry>
                </mxCell>
                <mxCell id="448" value="" style="endArrow=none;html=1;rounded=1;shadow=0;labelBorderColor=none;comic=0;sketch=1;jiggle=0;curveFitting=0;simplification=1;sketchStyle=rough;strokeColor=default;strokeWidth=3;startSize=0;endSize=0;jumpStyle=none;movable=0;resizable=0;rotatable=0;deletable=0;editable=0;connectable=0;" edge="1" parent="381">
                    <mxGeometry width="50" height="50" relative="1" as="geometry">
                        <mxPoint x="425" y="475" as="sourcePoint"/>
                        <mxPoint x="415" y="460" as="targetPoint"/>
                    </mxGeometry>
                </mxCell>
                <mxCell id="449" value="" style="endArrow=none;html=1;rounded=1;shadow=0;labelBorderColor=none;comic=0;sketch=1;jiggle=0;curveFitting=0;simplification=1;sketchStyle=rough;strokeColor=default;strokeWidth=3;startSize=0;endSize=0;jumpStyle=none;movable=0;resizable=0;rotatable=0;deletable=0;editable=0;connectable=0;" edge="1" parent="381">
                    <mxGeometry width="50" height="50" relative="1" as="geometry">
                        <mxPoint x="405" y="445" as="sourcePoint"/>
                        <mxPoint x="415" y="430" as="targetPoint"/>
                    </mxGeometry>
                </mxCell>
                <mxCell id="450" value="" style="endArrow=none;html=1;rounded=1;shadow=0;labelBorderColor=none;comic=0;sketch=1;jiggle=0;curveFitting=0;simplification=1;sketchStyle=rough;strokeColor=default;strokeWidth=3;startSize=0;endSize=0;jumpStyle=none;movable=0;resizable=0;rotatable=0;deletable=0;editable=0;connectable=0;" edge="1" parent="381">
                    <mxGeometry width="50" height="50" relative="1" as="geometry">
                        <mxPoint x="475" y="430" as="sourcePoint"/>
                        <mxPoint x="415" y="430" as="targetPoint"/>
                    </mxGeometry>
                </mxCell>
                <mxCell id="451" value="" style="endArrow=none;html=1;rounded=1;shadow=0;labelBorderColor=none;comic=0;sketch=1;jiggle=0;curveFitting=0;simplification=1;sketchStyle=rough;strokeColor=default;strokeWidth=3;startSize=0;endSize=0;jumpStyle=none;movable=0;resizable=0;rotatable=0;deletable=0;editable=0;connectable=0;" edge="1" parent="381">
                    <mxGeometry width="50" height="50" relative="1" as="geometry">
                        <mxPoint x="405" y="565" as="sourcePoint"/>
                        <mxPoint x="415" y="580" as="targetPoint"/>
                    </mxGeometry>
                </mxCell>
                <mxCell id="452" value="" style="endArrow=none;html=1;rounded=1;shadow=0;labelBorderColor=none;comic=0;sketch=1;jiggle=0;curveFitting=0;simplification=1;sketchStyle=rough;strokeColor=default;strokeWidth=3;startSize=0;endSize=0;jumpStyle=none;movable=0;resizable=0;rotatable=0;deletable=0;editable=0;connectable=0;" edge="1" parent="381">
                    <mxGeometry width="50" height="50" relative="1" as="geometry">
                        <mxPoint x="415" y="580" as="sourcePoint"/>
                        <mxPoint x="435" y="580" as="targetPoint"/>
                    </mxGeometry>
                </mxCell>
                <mxCell id="453" value="" style="endArrow=none;html=1;rounded=1;shadow=0;labelBorderColor=none;comic=0;sketch=1;jiggle=0;curveFitting=0;simplification=1;sketchStyle=rough;strokeColor=default;strokeWidth=3;startSize=0;endSize=0;jumpStyle=none;movable=0;resizable=0;rotatable=0;deletable=0;editable=0;connectable=0;" edge="1" parent="381">
                    <mxGeometry width="50" height="50" relative="1" as="geometry">
                        <mxPoint x="455" y="550" as="sourcePoint"/>
                        <mxPoint x="435" y="580" as="targetPoint"/>
                    </mxGeometry>
                </mxCell>
                <mxCell id="454" value="" style="endArrow=none;html=1;rounded=1;shadow=0;labelBorderColor=none;comic=0;sketch=1;jiggle=0;curveFitting=0;simplification=1;sketchStyle=rough;strokeColor=default;strokeWidth=3;startSize=0;endSize=0;jumpStyle=none;movable=0;resizable=0;rotatable=0;deletable=0;editable=0;connectable=0;" edge="1" parent="381">
                    <mxGeometry width="50" height="50" relative="1" as="geometry">
                        <mxPoint x="455" y="550" as="sourcePoint"/>
                        <mxPoint x="535" y="550" as="targetPoint"/>
                    </mxGeometry>
                </mxCell>
                <mxCell id="455" value="" style="endArrow=none;html=1;rounded=1;shadow=0;labelBorderColor=none;comic=0;sketch=1;jiggle=0;curveFitting=0;simplification=1;sketchStyle=rough;strokeColor=default;strokeWidth=3;startSize=0;endSize=0;jumpStyle=none;movable=0;resizable=0;rotatable=0;deletable=0;editable=0;connectable=0;" edge="1" parent="381">
                    <mxGeometry width="50" height="50" relative="1" as="geometry">
                        <mxPoint x="565" y="505" as="sourcePoint"/>
                        <mxPoint x="535" y="550" as="targetPoint"/>
                    </mxGeometry>
                </mxCell>
                <mxCell id="456" value="" style="endArrow=none;html=1;rounded=1;shadow=0;labelBorderColor=none;comic=0;sketch=1;jiggle=0;curveFitting=0;simplification=1;sketchStyle=rough;strokeColor=default;strokeWidth=3;startSize=0;endSize=0;jumpStyle=none;movable=0;resizable=0;rotatable=0;deletable=0;editable=0;connectable=0;" edge="1" parent="381">
                    <mxGeometry width="50" height="50" relative="1" as="geometry">
                        <mxPoint x="565" y="505" as="sourcePoint"/>
                        <mxPoint x="555" y="490" as="targetPoint"/>
                    </mxGeometry>
                </mxCell>
                <mxCell id="457" value="" style="endArrow=none;html=1;rounded=1;shadow=0;labelBorderColor=none;comic=0;sketch=1;jiggle=0;curveFitting=0;simplification=1;sketchStyle=rough;strokeColor=default;strokeWidth=3;startSize=0;endSize=0;jumpStyle=none;movable=0;resizable=0;rotatable=0;deletable=0;editable=0;connectable=0;" edge="1" parent="381">
                    <mxGeometry width="50" height="50" relative="1" as="geometry">
                        <mxPoint x="535" y="490" as="sourcePoint"/>
                        <mxPoint x="555" y="490" as="targetPoint"/>
                    </mxGeometry>
                </mxCell>
                <mxCell id="458" value="" style="endArrow=none;html=1;rounded=1;shadow=0;labelBorderColor=none;comic=0;sketch=1;jiggle=0;curveFitting=0;simplification=1;sketchStyle=rough;strokeColor=default;strokeWidth=3;startSize=0;endSize=0;jumpStyle=none;movable=0;resizable=0;rotatable=0;deletable=0;editable=0;connectable=0;" edge="1" parent="381">
                    <mxGeometry width="50" height="50" relative="1" as="geometry">
                        <mxPoint x="515" y="520" as="sourcePoint"/>
                        <mxPoint x="535" y="490" as="targetPoint"/>
                    </mxGeometry>
                </mxCell>
                <mxCell id="459" value="" style="endArrow=none;html=1;rounded=1;shadow=0;labelBorderColor=none;comic=0;sketch=1;jiggle=0;curveFitting=0;simplification=1;sketchStyle=rough;strokeColor=default;strokeWidth=3;startSize=0;endSize=0;jumpStyle=none;movable=0;resizable=0;rotatable=0;deletable=0;editable=0;connectable=0;" edge="1" parent="381">
                    <mxGeometry width="50" height="50" relative="1" as="geometry">
                        <mxPoint x="495" y="520" as="sourcePoint"/>
                        <mxPoint x="515" y="520" as="targetPoint"/>
                    </mxGeometry>
                </mxCell>
                <mxCell id="460" value="" style="endArrow=none;html=1;rounded=1;shadow=0;labelBorderColor=none;comic=0;sketch=1;jiggle=0;curveFitting=0;simplification=1;sketchStyle=rough;strokeColor=default;strokeWidth=3;startSize=0;endSize=0;jumpStyle=none;movable=0;resizable=0;rotatable=0;deletable=0;editable=0;connectable=0;" edge="1" parent="381">
                    <mxGeometry width="50" height="50" relative="1" as="geometry">
                        <mxPoint x="495" y="520" as="sourcePoint"/>
                        <mxPoint x="465" y="475" as="targetPoint"/>
                    </mxGeometry>
                </mxCell>
                <mxCell id="461" value="" style="endArrow=none;html=1;rounded=1;shadow=0;labelBorderColor=none;comic=0;sketch=1;jiggle=0;curveFitting=0;simplification=1;sketchStyle=rough;strokeColor=default;strokeWidth=3;startSize=0;endSize=0;jumpStyle=none;movable=0;resizable=0;rotatable=0;deletable=0;editable=0;connectable=0;" edge="1" parent="381">
                    <mxGeometry width="50" height="50" relative="1" as="geometry">
                        <mxPoint x="465" y="475.0000000000001" as="sourcePoint"/>
                        <mxPoint x="485" y="445.0000000000001" as="targetPoint"/>
                    </mxGeometry>
                </mxCell>
                <mxCell id="462" value="" style="endArrow=none;html=1;rounded=1;shadow=0;labelBorderColor=none;comic=0;sketch=1;jiggle=0;curveFitting=0;simplification=1;sketchStyle=rough;strokeColor=default;strokeWidth=3;startSize=0;endSize=0;jumpStyle=none;movable=0;resizable=0;rotatable=0;deletable=0;editable=0;connectable=0;" edge="1" parent="381">
                    <mxGeometry width="50" height="50" relative="1" as="geometry">
                        <mxPoint x="485" y="445.0000000000001" as="sourcePoint"/>
                        <mxPoint x="475" y="430.0000000000001" as="targetPoint"/>
                    </mxGeometry>
                </mxCell>
                <mxCell id="463" value="marching_square_triangle" parent="0"/>
                <mxCell id="464" value="" style="verticalLabelPosition=bottom;verticalAlign=top;html=1;shape=mxgraph.basic.acute_triangle;dx=0.5;strokeColor=none;strokeWidth=3;fillColor=#d5e8d4;" vertex="1" parent="463">
                    <mxGeometry x="530" y="830" width="100" height="80" as="geometry"/>
                </mxCell>
                <mxCell id="465" value="" style="shape=parallelogram;perimeter=parallelogramPerimeter;whiteSpace=wrap;html=1;fixedSize=1;strokeColor=none;strokeWidth=3;fillColor=#d5e8d4;flipH=0;size=25;" vertex="1" parent="463">
                    <mxGeometry x="210.5" y="870" width="75" height="40" as="geometry"/>
                </mxCell>
                <mxCell id="466" value="" style="verticalLabelPosition=bottom;verticalAlign=top;html=1;shape=mxgraph.basic.acute_triangle;dx=0.5;strokeColor=none;strokeWidth=3;fillColor=#d5e8d4;flipH=1;" vertex="1" parent="463">
                    <mxGeometry x="259.5" y="870" width="50" height="40" as="geometry"/>
                </mxCell>
                <mxCell id="467" value="" style="verticalLabelPosition=bottom;verticalAlign=top;html=1;shape=mxgraph.basic.acute_triangle;dx=0.5;strokeColor=none;strokeWidth=3;fillColor=#d5e8d4;" vertex="1" parent="463">
                    <mxGeometry x="395" y="830" width="50" height="40" as="geometry"/>
                </mxCell>
                <mxCell id="468" value="" style="shape=parallelogram;perimeter=parallelogramPerimeter;whiteSpace=wrap;html=1;fixedSize=1;strokeColor=none;strokeWidth=3;fillColor=#d5e8d4;flipH=1;size=25;" vertex="1" parent="463">
                    <mxGeometry x="395" y="869" width="75" height="40" as="geometry"/>
                </mxCell>
                <mxCell id="469" value="" style="verticalLabelPosition=bottom;verticalAlign=top;html=1;shape=mxgraph.basic.acute_triangle;dx=0.5;strokeColor=none;strokeWidth=3;fillColor=#d5e8d4;flipH=1;" vertex="1" parent="463">
                    <mxGeometry x="420" y="750" width="50" height="40" as="geometry"/>
                </mxCell>
                <mxCell id="470" value="" style="verticalLabelPosition=bottom;verticalAlign=top;html=1;shape=mxgraph.basic.acute_triangle;dx=0.5;strokeColor=none;strokeWidth=3;fillColor=#d5e8d4;flipH=1;" vertex="1" parent="463">
                    <mxGeometry x="555" y="711" width="50" height="40" as="geometry"/>
                </mxCell>
                <mxCell id="471" value="" style="verticalLabelPosition=bottom;verticalAlign=top;html=1;shape=mxgraph.basic.acute_triangle;dx=0.5;strokeColor=none;strokeWidth=3;fillColor=#d5e8d4;flipH=1;" vertex="1" parent="463">
                    <mxGeometry x="210" y="750" width="50" height="40" as="geometry"/>
                </mxCell>
                <mxCell id="472" value="" style="verticalLabelPosition=bottom;verticalAlign=top;html=1;shape=mxgraph.basic.acute_triangle;dx=0.5;strokeColor=none;strokeWidth=3;fillColor=#d5e8d4;flipH=1;" vertex="1" parent="463">
                    <mxGeometry x="75" y="830" width="50" height="40" as="geometry"/>
                </mxCell>
                <mxCell id="473" value="" style="shape=parallelogram;perimeter=parallelogramPerimeter;whiteSpace=wrap;html=1;fixedSize=1;strokeColor=none;strokeWidth=3;fillColor=#d5e8d4;flipH=0;size=25;" vertex="1" parent="463">
                    <mxGeometry x="50" y="869" width="75" height="40" as="geometry"/>
                </mxCell>
                <mxCell id="474" value="" style="verticalLabelPosition=bottom;verticalAlign=top;html=1;shape=mxgraph.basic.acute_triangle;dx=0.5;strokeColor=none;strokeWidth=3;fillColor=#f8cecc;flipH=1;" vertex="1" parent="463">
                    <mxGeometry x="370" y="870" width="50" height="40" as="geometry"/>
                </mxCell>
                <mxCell id="475" value="" style="verticalLabelPosition=bottom;verticalAlign=top;html=1;shape=mxgraph.basic.acute_triangle;dx=0.5;strokeColor=none;strokeWidth=3;fillColor=#f8cecc;flipH=1;" vertex="1" parent="463">
                    <mxGeometry x="235" y="830" width="50" height="40" as="geometry"/>
                </mxCell>
                <mxCell id="476" value="" style="verticalLabelPosition=bottom;verticalAlign=top;html=1;shape=mxgraph.basic.acute_triangle;dx=0.5;strokeColor=none;strokeWidth=3;fillColor=#f8cecc;flipH=1;" vertex="1" parent="463">
                    <mxGeometry x="100" y="870" width="50" height="40" as="geometry"/>
                </mxCell>
                <mxCell id="477" value="" style="verticalLabelPosition=bottom;verticalAlign=top;html=1;shape=mxgraph.basic.acute_triangle;dx=0.5;strokeColor=none;strokeWidth=3;fillColor=#f8cecc;" vertex="1" parent="463">
                    <mxGeometry x="50" y="710" width="100" height="80" as="geometry"/>
                </mxCell>
                <mxCell id="478" value="" style="shape=parallelogram;perimeter=parallelogramPerimeter;whiteSpace=wrap;html=1;fixedSize=1;strokeColor=none;strokeWidth=3;fillColor=#f8cecc;flipH=0;size=25;" vertex="1" parent="463">
                    <mxGeometry x="530" y="750" width="75" height="40" as="geometry"/>
                </mxCell>
                <mxCell id="479" value="" style="verticalLabelPosition=bottom;verticalAlign=top;html=1;shape=mxgraph.basic.acute_triangle;dx=0.5;strokeColor=none;strokeWidth=3;fillColor=#f8cecc;flipH=1;" vertex="1" parent="463">
                    <mxGeometry x="579" y="750" width="50" height="40" as="geometry"/>
                </mxCell>
                <mxCell id="480" value="" style="verticalLabelPosition=bottom;verticalAlign=top;html=1;shape=mxgraph.basic.acute_triangle;dx=0.5;strokeColor=none;strokeWidth=3;fillColor=#f8cecc;flipH=1;" vertex="1" parent="463">
                    <mxGeometry x="395" y="711" width="50" height="40" as="geometry"/>
                </mxCell>
                <mxCell id="481" value="" style="shape=parallelogram;perimeter=parallelogramPerimeter;whiteSpace=wrap;html=1;fixedSize=1;strokeColor=none;strokeWidth=3;fillColor=#f8cecc;flipH=0;size=25;" vertex="1" parent="463">
                    <mxGeometry x="370" y="750" width="75" height="40" as="geometry"/>
                </mxCell>
                <mxCell id="482" value="" style="verticalLabelPosition=bottom;verticalAlign=top;html=1;shape=mxgraph.basic.acute_triangle;dx=0.5;strokeColor=none;strokeWidth=3;fillColor=#f8cecc;" vertex="1" parent="463">
                    <mxGeometry x="235" y="711" width="50" height="40" as="geometry"/>
                </mxCell>
                <mxCell id="483" value="" style="shape=parallelogram;perimeter=parallelogramPerimeter;whiteSpace=wrap;html=1;fixedSize=1;strokeColor=none;strokeWidth=3;fillColor=#f8cecc;flipH=1;size=25;" vertex="1" parent="463">
                    <mxGeometry x="235" y="750" width="75" height="40" as="geometry"/>
                </mxCell>
                <mxCell id="484" value="" style="shape=ellipse;fillColor=#f8cecc;strokeColor=#b85450;html=1;sketch=0;movable=1;resizable=1;rotatable=1;deletable=1;editable=1;connectable=1;strokeWidth=3;" vertex="1" parent="463">
                    <mxGeometry x="360" y="780" width="20" height="20" as="geometry"/>
                </mxCell>
                <mxCell id="485" value="" style="shape=ellipse;fillColor=#d5e8d4;strokeColor=#82b366;html=1;sketch=0;movable=1;resizable=1;rotatable=1;deletable=1;editable=1;connectable=1;strokeWidth=3;" vertex="1" parent="463">
                    <mxGeometry x="460" y="780" width="20" height="20" as="geometry"/>
                </mxCell>
                <mxCell id="486" value="" style="shape=ellipse;fillColor=#f8cecc;strokeColor=#b85450;html=1;sketch=0;movable=1;resizable=1;rotatable=1;deletable=1;editable=1;connectable=1;strokeWidth=3;" vertex="1" parent="463">
                    <mxGeometry x="410" y="700" width="20" height="20" as="geometry"/>
                </mxCell>
                <mxCell id="487" value="" style="endArrow=none;html=1;strokeWidth=3;shadow=0;fixDash=0;bendable=0;movable=1;cloneable=1;noJump=0;orthogonalLoop=0;enumerate=0;comic=0;endFill=1;startFill=1;arcSize=1;jumpStyle=none;startSize=0;endSize=0;strokeColor=default;rounded=1;flowAnimation=0;ignoreEdge=0;labelBorderColor=none;sketch=1;curveFitting=0;jiggle=0;" edge="1" parent="463">
                    <mxGeometry width="50" height="50" relative="1" as="geometry">
                        <mxPoint x="420" y="710" as="sourcePoint"/>
                        <mxPoint x="470" y="790" as="targetPoint"/>
                    </mxGeometry>
                </mxCell>
                <mxCell id="488" value="" style="endArrow=none;html=1;strokeWidth=3;shadow=0;fixDash=0;bendable=0;movable=1;cloneable=1;noJump=0;orthogonalLoop=0;enumerate=0;comic=0;endFill=1;startFill=1;arcSize=1;jumpStyle=none;startSize=0;endSize=0;strokeColor=default;rounded=1;flowAnimation=0;ignoreEdge=0;labelBorderColor=none;sketch=1;curveFitting=0;jiggle=0;" edge="1" parent="463">
                    <mxGeometry width="50" height="50" relative="1" as="geometry">
                        <mxPoint x="370" y="790" as="sourcePoint"/>
                        <mxPoint x="420" y="710" as="targetPoint"/>
                    </mxGeometry>
                </mxCell>
                <mxCell id="489" value="" style="endArrow=none;html=1;strokeWidth=3;shadow=0;fixDash=0;bendable=0;movable=1;cloneable=1;noJump=0;orthogonalLoop=0;enumerate=0;comic=0;endFill=1;startFill=1;arcSize=1;jumpStyle=none;startSize=0;endSize=0;strokeColor=default;rounded=1;flowAnimation=0;ignoreEdge=0;labelBorderColor=none;sketch=1;curveFitting=0;jiggle=0;" edge="1" parent="463">
                    <mxGeometry width="50" height="50" relative="1" as="geometry">
                        <mxPoint x="370" y="790" as="sourcePoint"/>
                        <mxPoint x="470" y="790" as="targetPoint"/>
                    </mxGeometry>
                </mxCell>
                <mxCell id="490" value="" style="shape=ellipse;fillColor=#d5e8d4;strokeColor=#82b366;html=1;sketch=0;movable=1;resizable=1;rotatable=1;deletable=1;editable=1;connectable=1;strokeWidth=3;" vertex="1" parent="463">
                    <mxGeometry x="200" y="780" width="20" height="20" as="geometry"/>
                </mxCell>
                <mxCell id="491" value="" style="shape=ellipse;fillColor=#f8cecc;strokeColor=#b85450;html=1;sketch=0;movable=1;resizable=1;rotatable=1;deletable=1;editable=1;connectable=1;strokeWidth=3;" vertex="1" parent="463">
                    <mxGeometry x="300" y="780" width="20" height="20" as="geometry"/>
                </mxCell>
                <mxCell id="492" value="" style="shape=ellipse;fillColor=#f8cecc;strokeColor=#b85450;html=1;sketch=0;movable=1;resizable=1;rotatable=1;deletable=1;editable=1;connectable=1;strokeWidth=3;" vertex="1" parent="463">
                    <mxGeometry x="250" y="700" width="20" height="20" as="geometry"/>
                </mxCell>
                <mxCell id="493" value="" style="endArrow=none;html=1;strokeWidth=3;shadow=0;fixDash=0;bendable=0;movable=1;cloneable=1;noJump=0;orthogonalLoop=0;enumerate=0;comic=0;endFill=1;startFill=1;arcSize=1;jumpStyle=none;startSize=0;endSize=0;strokeColor=default;rounded=1;flowAnimation=0;ignoreEdge=0;labelBorderColor=none;sketch=1;curveFitting=0;jiggle=0;" edge="1" parent="463">
                    <mxGeometry width="50" height="50" relative="1" as="geometry">
                        <mxPoint x="260" y="710" as="sourcePoint"/>
                        <mxPoint x="310" y="790" as="targetPoint"/>
                    </mxGeometry>
                </mxCell>
                <mxCell id="494" value="" style="endArrow=none;html=1;strokeWidth=3;shadow=0;fixDash=0;bendable=0;movable=1;cloneable=1;noJump=0;orthogonalLoop=0;enumerate=0;comic=0;endFill=1;startFill=1;arcSize=1;jumpStyle=none;startSize=0;endSize=0;strokeColor=default;rounded=1;flowAnimation=0;ignoreEdge=0;labelBorderColor=none;sketch=1;curveFitting=0;jiggle=0;" edge="1" parent="463">
                    <mxGeometry width="50" height="50" relative="1" as="geometry">
                        <mxPoint x="210.0000000000001" y="790" as="sourcePoint"/>
                        <mxPoint x="260" y="710" as="targetPoint"/>
                    </mxGeometry>
                </mxCell>
                <mxCell id="495" value="" style="endArrow=none;html=1;strokeWidth=3;shadow=0;fixDash=0;bendable=0;movable=1;cloneable=1;noJump=0;orthogonalLoop=0;enumerate=0;comic=0;endFill=1;startFill=1;arcSize=1;jumpStyle=none;startSize=0;endSize=0;strokeColor=default;rounded=1;flowAnimation=0;ignoreEdge=0;labelBorderColor=none;sketch=1;curveFitting=0;jiggle=0;" edge="1" parent="463">
                    <mxGeometry width="50" height="50" relative="1" as="geometry">
                        <mxPoint x="210.0000000000001" y="790" as="sourcePoint"/>
                        <mxPoint x="310" y="790" as="targetPoint"/>
                    </mxGeometry>
                </mxCell>
                <mxCell id="496" value="" style="shape=ellipse;fillColor=#f8cecc;strokeColor=#b85450;html=1;sketch=0;movable=1;resizable=1;rotatable=1;deletable=1;editable=1;connectable=1;strokeWidth=3;" vertex="1" parent="463">
                    <mxGeometry x="40" y="780" width="20" height="20" as="geometry"/>
                </mxCell>
                <mxCell id="497" value="" style="shape=ellipse;fillColor=#f8cecc;strokeColor=#b85450;html=1;sketch=0;movable=1;resizable=1;rotatable=1;deletable=1;editable=1;connectable=1;strokeWidth=3;" vertex="1" parent="463">
                    <mxGeometry x="140" y="780" width="20" height="20" as="geometry"/>
                </mxCell>
                <mxCell id="498" value="" style="shape=ellipse;fillColor=#f8cecc;strokeColor=#b85450;html=1;sketch=0;movable=1;resizable=1;rotatable=1;deletable=1;editable=1;connectable=1;strokeWidth=3;" vertex="1" parent="463">
                    <mxGeometry x="90" y="700" width="20" height="20" as="geometry"/>
                </mxCell>
                <mxCell id="499" value="" style="endArrow=none;html=1;strokeWidth=3;shadow=0;fixDash=0;bendable=0;movable=1;cloneable=1;noJump=0;orthogonalLoop=0;enumerate=0;comic=0;endFill=1;startFill=1;arcSize=1;jumpStyle=none;startSize=0;endSize=0;strokeColor=default;rounded=1;flowAnimation=0;ignoreEdge=0;labelBorderColor=none;sketch=1;curveFitting=0;jiggle=0;" edge="1" parent="463">
                    <mxGeometry width="50" height="50" relative="1" as="geometry">
                        <mxPoint x="100.00000000000011" y="710" as="sourcePoint"/>
                        <mxPoint x="150.0000000000001" y="790" as="targetPoint"/>
                    </mxGeometry>
                </mxCell>
                <mxCell id="500" value="" style="endArrow=none;html=1;strokeWidth=3;shadow=0;fixDash=0;bendable=0;movable=1;cloneable=1;noJump=0;orthogonalLoop=0;enumerate=0;comic=0;endFill=1;startFill=1;arcSize=1;jumpStyle=none;startSize=0;endSize=0;strokeColor=default;rounded=1;flowAnimation=0;ignoreEdge=0;labelBorderColor=none;sketch=1;curveFitting=0;jiggle=0;" edge="1" parent="463">
                    <mxGeometry width="50" height="50" relative="1" as="geometry">
                        <mxPoint x="50.000000000000114" y="790" as="sourcePoint"/>
                        <mxPoint x="100.00000000000011" y="710" as="targetPoint"/>
                    </mxGeometry>
                </mxCell>
                <mxCell id="501" value="" style="endArrow=none;html=1;strokeWidth=3;shadow=0;fixDash=0;bendable=0;movable=1;cloneable=1;noJump=0;orthogonalLoop=0;enumerate=0;comic=0;endFill=1;startFill=1;arcSize=1;jumpStyle=none;startSize=0;endSize=0;strokeColor=default;rounded=1;flowAnimation=0;ignoreEdge=0;labelBorderColor=none;sketch=1;curveFitting=0;jiggle=0;" edge="1" parent="463">
                    <mxGeometry width="50" height="50" relative="1" as="geometry">
                        <mxPoint x="50.000000000000114" y="790" as="sourcePoint"/>
                        <mxPoint x="150.0000000000001" y="790" as="targetPoint"/>
                    </mxGeometry>
                </mxCell>
                <mxCell id="502" value="" style="shape=ellipse;fillColor=#d5e8d4;strokeColor=#82b366;html=1;sketch=0;movable=1;resizable=1;rotatable=1;deletable=1;editable=1;connectable=1;strokeWidth=3;" vertex="1" parent="463">
                    <mxGeometry x="520" y="900" width="20" height="20" as="geometry"/>
                </mxCell>
                <mxCell id="503" value="" style="shape=ellipse;fillColor=#d5e8d4;strokeColor=#82b366;html=1;sketch=0;movable=1;resizable=1;rotatable=1;deletable=1;editable=1;connectable=1;strokeWidth=3;" vertex="1" parent="463">
                    <mxGeometry x="620" y="900" width="20" height="20" as="geometry"/>
                </mxCell>
                <mxCell id="504" value="" style="shape=ellipse;fillColor=#d5e8d4;strokeColor=#82b366;html=1;sketch=0;movable=1;resizable=1;rotatable=1;deletable=1;editable=1;connectable=1;strokeWidth=3;" vertex="1" parent="463">
                    <mxGeometry x="570" y="820" width="20" height="20" as="geometry"/>
                </mxCell>
                <mxCell id="505" value="" style="endArrow=none;html=1;strokeWidth=3;shadow=0;fixDash=0;bendable=0;movable=1;cloneable=1;noJump=0;orthogonalLoop=0;enumerate=0;comic=0;endFill=1;startFill=1;arcSize=1;jumpStyle=none;startSize=0;endSize=0;strokeColor=default;rounded=1;flowAnimation=0;ignoreEdge=0;labelBorderColor=none;sketch=1;curveFitting=0;jiggle=0;" edge="1" parent="463">
                    <mxGeometry width="50" height="50" relative="1" as="geometry">
                        <mxPoint x="580" y="830" as="sourcePoint"/>
                        <mxPoint x="630" y="910" as="targetPoint"/>
                    </mxGeometry>
                </mxCell>
                <mxCell id="506" value="" style="endArrow=none;html=1;strokeWidth=3;shadow=0;fixDash=0;bendable=0;movable=1;cloneable=1;noJump=0;orthogonalLoop=0;enumerate=0;comic=0;endFill=1;startFill=1;arcSize=1;jumpStyle=none;startSize=0;endSize=0;strokeColor=default;rounded=1;flowAnimation=0;ignoreEdge=0;labelBorderColor=none;sketch=1;curveFitting=0;jiggle=0;" edge="1" parent="463">
                    <mxGeometry width="50" height="50" relative="1" as="geometry">
                        <mxPoint x="530" y="910" as="sourcePoint"/>
                        <mxPoint x="580" y="830" as="targetPoint"/>
                    </mxGeometry>
                </mxCell>
                <mxCell id="507" value="" style="endArrow=none;html=1;strokeWidth=3;shadow=0;fixDash=0;bendable=0;movable=1;cloneable=1;noJump=0;orthogonalLoop=0;enumerate=0;comic=0;endFill=1;startFill=1;arcSize=1;jumpStyle=none;startSize=0;endSize=0;strokeColor=default;rounded=1;flowAnimation=0;ignoreEdge=0;labelBorderColor=none;sketch=1;curveFitting=0;jiggle=0;" edge="1" parent="463">
                    <mxGeometry width="50" height="50" relative="1" as="geometry">
                        <mxPoint x="530" y="910" as="sourcePoint"/>
                        <mxPoint x="630" y="910" as="targetPoint"/>
                    </mxGeometry>
                </mxCell>
                <mxCell id="508" value="" style="shape=ellipse;fillColor=#f8cecc;strokeColor=#b85450;html=1;sketch=0;movable=1;resizable=1;rotatable=1;deletable=1;editable=1;connectable=1;strokeWidth=3;" vertex="1" parent="463">
                    <mxGeometry x="360" y="900" width="20" height="20" as="geometry"/>
                </mxCell>
                <mxCell id="509" value="" style="shape=ellipse;fillColor=#d5e8d4;strokeColor=#82b366;html=1;sketch=0;movable=1;resizable=1;rotatable=1;deletable=1;editable=1;connectable=1;strokeWidth=3;" vertex="1" parent="463">
                    <mxGeometry x="460" y="900" width="20" height="20" as="geometry"/>
                </mxCell>
                <mxCell id="510" value="" style="shape=ellipse;fillColor=#d5e8d4;strokeColor=#82b366;html=1;sketch=0;movable=1;resizable=1;rotatable=1;deletable=1;editable=1;connectable=1;strokeWidth=3;" vertex="1" parent="463">
                    <mxGeometry x="410" y="820" width="20" height="20" as="geometry"/>
                </mxCell>
                <mxCell id="511" value="" style="endArrow=none;html=1;strokeWidth=3;shadow=0;fixDash=0;bendable=0;movable=1;cloneable=1;noJump=0;orthogonalLoop=0;enumerate=0;comic=0;endFill=1;startFill=1;arcSize=1;jumpStyle=none;startSize=0;endSize=0;strokeColor=default;rounded=1;flowAnimation=0;ignoreEdge=0;labelBorderColor=none;sketch=1;curveFitting=0;jiggle=0;" edge="1" parent="463">
                    <mxGeometry width="50" height="50" relative="1" as="geometry">
                        <mxPoint x="420" y="830" as="sourcePoint"/>
                        <mxPoint x="470" y="910" as="targetPoint"/>
                    </mxGeometry>
                </mxCell>
                <mxCell id="512" value="" style="endArrow=none;html=1;strokeWidth=3;shadow=0;fixDash=0;bendable=0;movable=1;cloneable=1;noJump=0;orthogonalLoop=0;enumerate=0;comic=0;endFill=1;startFill=1;arcSize=1;jumpStyle=none;startSize=0;endSize=0;strokeColor=default;rounded=1;flowAnimation=0;ignoreEdge=0;labelBorderColor=none;sketch=1;curveFitting=0;jiggle=0;" edge="1" parent="463">
                    <mxGeometry width="50" height="50" relative="1" as="geometry">
                        <mxPoint x="370" y="910" as="sourcePoint"/>
                        <mxPoint x="420" y="830" as="targetPoint"/>
                    </mxGeometry>
                </mxCell>
                <mxCell id="513" value="" style="endArrow=none;html=1;strokeWidth=3;shadow=0;fixDash=0;bendable=0;movable=1;cloneable=1;noJump=0;orthogonalLoop=0;enumerate=0;comic=0;endFill=1;startFill=1;arcSize=1;jumpStyle=none;startSize=0;endSize=0;strokeColor=default;rounded=1;flowAnimation=0;ignoreEdge=0;labelBorderColor=none;sketch=1;curveFitting=0;jiggle=0;" edge="1" parent="463">
                    <mxGeometry width="50" height="50" relative="1" as="geometry">
                        <mxPoint x="370" y="910" as="sourcePoint"/>
                        <mxPoint x="470" y="910" as="targetPoint"/>
                    </mxGeometry>
                </mxCell>
                <mxCell id="514" value="" style="shape=ellipse;fillColor=#f8cecc;strokeColor=#b85450;html=1;sketch=0;movable=1;resizable=1;rotatable=1;deletable=1;editable=1;connectable=1;strokeWidth=3;" vertex="1" parent="463">
                    <mxGeometry x="520" y="780" width="20" height="20" as="geometry"/>
                </mxCell>
                <mxCell id="515" value="" style="shape=ellipse;fillColor=#f8cecc;strokeColor=#b85450;html=1;sketch=0;movable=1;resizable=1;rotatable=1;deletable=1;editable=1;connectable=1;strokeWidth=3;" vertex="1" parent="463">
                    <mxGeometry x="620" y="780" width="20" height="20" as="geometry"/>
                </mxCell>
                <mxCell id="516" value="" style="shape=ellipse;fillColor=#d5e8d4;strokeColor=#82b366;html=1;sketch=0;movable=1;resizable=1;rotatable=1;deletable=1;editable=1;connectable=1;strokeWidth=3;" vertex="1" parent="463">
                    <mxGeometry x="570" y="700" width="20" height="20" as="geometry"/>
                </mxCell>
                <mxCell id="517" value="" style="endArrow=none;html=1;strokeWidth=3;shadow=0;fixDash=0;bendable=0;movable=1;cloneable=1;noJump=0;orthogonalLoop=0;enumerate=0;comic=0;endFill=1;startFill=1;arcSize=1;jumpStyle=none;startSize=0;endSize=0;strokeColor=default;rounded=1;flowAnimation=0;ignoreEdge=0;labelBorderColor=none;sketch=1;curveFitting=0;jiggle=0;" edge="1" parent="463">
                    <mxGeometry width="50" height="50" relative="1" as="geometry">
                        <mxPoint x="580" y="710" as="sourcePoint"/>
                        <mxPoint x="630" y="790" as="targetPoint"/>
                    </mxGeometry>
                </mxCell>
                <mxCell id="518" value="" style="endArrow=none;html=1;strokeWidth=3;shadow=0;fixDash=0;bendable=0;movable=1;cloneable=1;noJump=0;orthogonalLoop=0;enumerate=0;comic=0;endFill=1;startFill=1;arcSize=1;jumpStyle=none;startSize=0;endSize=0;strokeColor=default;rounded=1;flowAnimation=0;ignoreEdge=0;labelBorderColor=none;sketch=1;curveFitting=0;jiggle=0;" edge="1" parent="463">
                    <mxGeometry width="50" height="50" relative="1" as="geometry">
                        <mxPoint x="530" y="790" as="sourcePoint"/>
                        <mxPoint x="580" y="710" as="targetPoint"/>
                    </mxGeometry>
                </mxCell>
                <mxCell id="519" value="" style="endArrow=none;html=1;strokeWidth=3;shadow=0;fixDash=0;bendable=0;movable=1;cloneable=1;noJump=0;orthogonalLoop=0;enumerate=0;comic=0;endFill=1;startFill=1;arcSize=1;jumpStyle=none;startSize=0;endSize=0;strokeColor=default;rounded=1;flowAnimation=0;ignoreEdge=0;labelBorderColor=none;sketch=1;curveFitting=0;jiggle=0;" edge="1" parent="463">
                    <mxGeometry width="50" height="50" relative="1" as="geometry">
                        <mxPoint x="530" y="790" as="sourcePoint"/>
                        <mxPoint x="630" y="790" as="targetPoint"/>
                    </mxGeometry>
                </mxCell>
                <mxCell id="520" value="" style="endArrow=none;html=1;rounded=1;shadow=0;labelBorderColor=none;comic=0;sketch=1;jiggle=0;curveFitting=0;simplification=1;sketchStyle=rough;strokeColor=default;strokeWidth=3;startSize=0;endSize=0;jumpStyle=none;snapToPoint=0;" edge="1" parent="463">
                    <mxGeometry width="50" height="50" relative="1" as="geometry">
                        <mxPoint x="235" y="750" as="sourcePoint"/>
                        <mxPoint x="260" y="790" as="targetPoint"/>
                    </mxGeometry>
                </mxCell>
                <mxCell id="521" value="" style="endArrow=none;html=1;rounded=1;shadow=0;labelBorderColor=none;comic=0;sketch=1;jiggle=0;curveFitting=0;simplification=1;sketchStyle=rough;strokeColor=default;strokeWidth=3;startSize=0;endSize=0;jumpStyle=none;snapToPoint=0;" edge="1" parent="463">
                    <mxGeometry width="50" height="50" relative="1" as="geometry">
                        <mxPoint x="445" y="750" as="sourcePoint"/>
                        <mxPoint x="420" y="790" as="targetPoint"/>
                    </mxGeometry>
                </mxCell>
                <mxCell id="522" value="" style="endArrow=none;html=1;rounded=1;shadow=0;labelBorderColor=none;comic=0;sketch=1;jiggle=0;curveFitting=0;simplification=1;sketchStyle=rough;strokeColor=default;strokeWidth=3;startSize=0;endSize=0;jumpStyle=none;snapToPoint=0;" edge="1" parent="463">
                    <mxGeometry width="50" height="50" relative="1" as="geometry">
                        <mxPoint x="605" y="750" as="sourcePoint"/>
                        <mxPoint x="555" y="750" as="targetPoint"/>
                    </mxGeometry>
                </mxCell>
                <mxCell id="523" value="" style="shape=ellipse;fillColor=#d5e8d4;strokeColor=#82b366;html=1;sketch=0;movable=1;resizable=1;rotatable=1;deletable=1;editable=1;connectable=1;strokeWidth=3;" vertex="1" parent="463">
                    <mxGeometry x="200" y="900" width="20" height="20" as="geometry"/>
                </mxCell>
                <mxCell id="524" value="" style="shape=ellipse;fillColor=#d5e8d4;strokeColor=#82b366;html=1;sketch=0;movable=1;resizable=1;rotatable=1;deletable=1;editable=1;connectable=1;strokeWidth=3;" vertex="1" parent="463">
                    <mxGeometry x="300" y="900" width="20" height="20" as="geometry"/>
                </mxCell>
                <mxCell id="525" value="" style="shape=ellipse;fillColor=#f8cecc;strokeColor=#b85450;html=1;sketch=0;movable=1;resizable=1;rotatable=1;deletable=1;editable=1;connectable=1;strokeWidth=3;" vertex="1" parent="463">
                    <mxGeometry x="250" y="820" width="20" height="20" as="geometry"/>
                </mxCell>
                <mxCell id="526" value="" style="endArrow=none;html=1;strokeWidth=3;shadow=0;fixDash=0;bendable=0;movable=1;cloneable=1;noJump=0;orthogonalLoop=0;enumerate=0;comic=0;endFill=1;startFill=1;arcSize=1;jumpStyle=none;startSize=0;endSize=0;strokeColor=default;rounded=1;flowAnimation=0;ignoreEdge=0;labelBorderColor=none;sketch=1;curveFitting=0;jiggle=0;" edge="1" parent="463">
                    <mxGeometry width="50" height="50" relative="1" as="geometry">
                        <mxPoint x="260" y="830" as="sourcePoint"/>
                        <mxPoint x="310" y="910" as="targetPoint"/>
                    </mxGeometry>
                </mxCell>
                <mxCell id="527" value="" style="endArrow=none;html=1;strokeWidth=3;shadow=0;fixDash=0;bendable=0;movable=1;cloneable=1;noJump=0;orthogonalLoop=0;enumerate=0;comic=0;endFill=1;startFill=1;arcSize=1;jumpStyle=none;startSize=0;endSize=0;strokeColor=default;rounded=1;flowAnimation=0;ignoreEdge=0;labelBorderColor=none;sketch=1;curveFitting=0;jiggle=0;" edge="1" parent="463">
                    <mxGeometry width="50" height="50" relative="1" as="geometry">
                        <mxPoint x="210" y="910" as="sourcePoint"/>
                        <mxPoint x="260" y="830" as="targetPoint"/>
                    </mxGeometry>
                </mxCell>
                <mxCell id="528" value="" style="endArrow=none;html=1;strokeWidth=3;shadow=0;fixDash=0;bendable=0;movable=1;cloneable=1;noJump=0;orthogonalLoop=0;enumerate=0;comic=0;endFill=1;startFill=1;arcSize=1;jumpStyle=none;startSize=0;endSize=0;strokeColor=default;rounded=1;flowAnimation=0;ignoreEdge=0;labelBorderColor=none;sketch=1;curveFitting=0;jiggle=0;" edge="1" parent="463">
                    <mxGeometry width="50" height="50" relative="1" as="geometry">
                        <mxPoint x="210" y="910" as="sourcePoint"/>
                        <mxPoint x="310" y="910" as="targetPoint"/>
                    </mxGeometry>
                </mxCell>
                <mxCell id="529" value="" style="shape=ellipse;fillColor=#d5e8d4;strokeColor=#82b366;html=1;sketch=0;movable=1;resizable=1;rotatable=1;deletable=1;editable=1;connectable=1;strokeWidth=3;" vertex="1" parent="463">
                    <mxGeometry x="40" y="900" width="20" height="20" as="geometry"/>
                </mxCell>
                <mxCell id="530" value="" style="shape=ellipse;fillColor=#f8cecc;strokeColor=#b85450;html=1;sketch=0;movable=1;resizable=1;rotatable=1;deletable=1;editable=1;connectable=1;strokeWidth=3;" vertex="1" parent="463">
                    <mxGeometry x="140" y="900" width="20" height="20" as="geometry"/>
                </mxCell>
                <mxCell id="531" value="" style="shape=ellipse;fillColor=#d5e8d4;strokeColor=#82b366;html=1;sketch=0;movable=1;resizable=1;rotatable=1;deletable=1;editable=1;connectable=1;strokeWidth=3;" vertex="1" parent="463">
                    <mxGeometry x="90" y="820" width="20" height="20" as="geometry"/>
                </mxCell>
                <mxCell id="532" value="" style="endArrow=none;html=1;strokeWidth=3;shadow=0;fixDash=0;bendable=0;movable=1;cloneable=1;noJump=0;orthogonalLoop=0;enumerate=0;comic=0;endFill=1;startFill=1;arcSize=1;jumpStyle=none;startSize=0;endSize=0;strokeColor=default;rounded=1;flowAnimation=0;ignoreEdge=0;labelBorderColor=none;sketch=1;curveFitting=0;jiggle=0;" edge="1" parent="463">
                    <mxGeometry width="50" height="50" relative="1" as="geometry">
                        <mxPoint x="100" y="830" as="sourcePoint"/>
                        <mxPoint x="150" y="910" as="targetPoint"/>
                    </mxGeometry>
                </mxCell>
                <mxCell id="533" value="" style="endArrow=none;html=1;strokeWidth=3;shadow=0;fixDash=0;bendable=0;movable=1;cloneable=1;noJump=0;orthogonalLoop=0;enumerate=0;comic=0;endFill=1;startFill=1;arcSize=1;jumpStyle=none;startSize=0;endSize=0;strokeColor=default;rounded=1;flowAnimation=0;ignoreEdge=0;labelBorderColor=none;sketch=1;curveFitting=0;jiggle=0;" edge="1" parent="463">
                    <mxGeometry width="50" height="50" relative="1" as="geometry">
                        <mxPoint x="50" y="910" as="sourcePoint"/>
                        <mxPoint x="100" y="830" as="targetPoint"/>
                    </mxGeometry>
                </mxCell>
                <mxCell id="534" value="" style="endArrow=none;html=1;strokeWidth=3;shadow=0;fixDash=0;bendable=0;movable=1;cloneable=1;noJump=0;orthogonalLoop=0;enumerate=0;comic=0;endFill=1;startFill=1;arcSize=1;jumpStyle=none;startSize=0;endSize=0;strokeColor=default;rounded=1;flowAnimation=0;ignoreEdge=0;labelBorderColor=none;sketch=1;curveFitting=0;jiggle=0;" edge="1" parent="463">
                    <mxGeometry width="50" height="50" relative="1" as="geometry">
                        <mxPoint x="50" y="910" as="sourcePoint"/>
                        <mxPoint x="150" y="910" as="targetPoint"/>
                    </mxGeometry>
                </mxCell>
                <mxCell id="535" value="" style="endArrow=none;html=1;rounded=1;shadow=0;labelBorderColor=none;comic=0;sketch=1;jiggle=0;curveFitting=0;simplification=1;sketchStyle=rough;strokeColor=default;strokeWidth=3;startSize=0;endSize=0;jumpStyle=none;snapToPoint=0;" edge="1" parent="463">
                    <mxGeometry width="50" height="50" relative="1" as="geometry">
                        <mxPoint x="125" y="870" as="sourcePoint"/>
                        <mxPoint x="100" y="910" as="targetPoint"/>
                    </mxGeometry>
                </mxCell>
                <mxCell id="536" value="" style="endArrow=none;html=1;rounded=1;shadow=0;labelBorderColor=none;comic=0;sketch=1;jiggle=0;curveFitting=0;simplification=1;sketchStyle=rough;strokeColor=default;strokeWidth=3;startSize=0;endSize=0;jumpStyle=none;snapToPoint=0;" edge="1" parent="463">
                    <mxGeometry width="50" height="50" relative="1" as="geometry">
                        <mxPoint x="285" y="870" as="sourcePoint"/>
                        <mxPoint x="235" y="870" as="targetPoint"/>
                    </mxGeometry>
                </mxCell>
                <mxCell id="537" value="" style="endArrow=none;html=1;rounded=1;shadow=0;labelBorderColor=none;comic=0;sketch=1;jiggle=0;curveFitting=0;simplification=1;sketchStyle=rough;strokeColor=default;strokeWidth=3;startSize=0;endSize=0;jumpStyle=none;snapToPoint=0;" edge="1" parent="463">
                    <mxGeometry width="50" height="50" relative="1" as="geometry">
                        <mxPoint x="395" y="870" as="sourcePoint"/>
                        <mxPoint x="420" y="910" as="targetPoint"/>
                    </mxGeometry>
                </mxCell>
            </root>
        </mxGraphModel>
    </diagram>
</mxfile>